<svg xmlns="http://www.w3.org/2000/svg" width="720" height="420" viewBox="0 0 720 420" role="img" aria-label="PJM RTO capacity-price fan chart 2027 to 2030">
  <rect width="720" height="420" fill="#ffffff"/>
  <text x="48" y="42" font-family="Arial" font-size="20" fill="#1f2937">PJM RTO capacity-price fan chart</text>
  <text x="48" y="66" font-family="Arial" font-size="13" fill="#4b5563">base-case, dollars per MW-day</text>
  <line x1="72" y1="348" x2="660" y2="348" stroke="#111827" stroke-width="1"/>
  <line x1="72" y1="92" x2="72" y2="348" stroke="#111827" stroke-width="1"/>
  <text x="52" y="352" font-family="Arial" font-size="11" fill="#374151">0</text>
  <text x="42" y="232" font-family="Arial" font-size="11" fill="#374151">200</text>
  <text x="42" y="108" font-family="Arial" font-size="11" fill="#374151">400</text>
  <polygon points="120,226 280,206 440,198 600,210 600,130 440,118 280,130 120,154" fill="#c7d2fe" opacity="0.85"/>
  <polyline points="120,181 280,162 440,158 600,169" fill="none" stroke="#1d4ed8" stroke-width="3"/>
  <polyline points="120,226 280,206 440,198 600,210" fill="none" stroke="#4338ca" stroke-width="1.5"/>
  <polyline points="120,154 280,130 440,118 600,130" fill="none" stroke="#4338ca" stroke-width="1.5"/>
  <text x="110" y="372" font-family="Arial" font-size="12" fill="#374151">2027</text>
  <text x="270" y="372" font-family="Arial" font-size="12" fill="#374151">2028</text>
  <text x="430" y="372" font-family="Arial" font-size="12" fill="#374151">2029</text>
  <text x="590" y="372" font-family="Arial" font-size="12" fill="#374151">2030</text>
  <text x="520" y="93" font-family="Arial" font-size="12" fill="#4338ca">p10-p90</text>
  <text x="520" y="113" font-family="Arial" font-size="12" fill="#1d4ed8">median</text>
</svg>
